<svg width="100" height="100" viewBox="0 0 100 100" fill="none" xmlns="http://www.w3.org/2000/svg">
<path d="M0 49.5555C0 22.2328 22.2329 0 49.5556 0C76.8782 0 99.1111 22.2328 99.1111 49.5555C99.1111 76.8782 76.8782 99.111 49.5556 99.111C22.2329 99.111 0 76.8782 0 49.5555ZM95.5409 49.5555C95.5409 24.2001 74.911 3.57015 49.5556 3.57015C24.2001 3.57015 3.57022 24.2001 3.57022 49.5555C3.57022 74.9109 24.2001 95.5408 49.5556 95.5408C74.911 95.5408 95.5409 74.9109 95.5409 49.5555Z" fill="#478BF9"/>
<path d="M99.4246 46.4019H77.7227V50.6798H99.4246V46.4019Z" fill="#478BF9"/>
<path d="M24.702 46.4019H3V50.6798H24.702V46.4019Z" fill="#478BF9"/>
<path d="M53.692 75.3794H49.4141V97.0814H53.692V75.3794Z" fill="#478BF9"/>
<path d="M53.692 0H49.4141V21.702H53.692V0Z" fill="#478BF9"/>
<path d="M77.0671 21.3898C62.2244 6.54713 38.1492 6.54713 23.2961 21.3898C8.45338 36.2326 8.45338 60.3078 23.2961 75.1609C38.1388 90.0036 62.214 90.0036 77.0671 75.1609C91.9099 60.3182 91.9099 36.243 77.0671 21.3898ZM57.5301 24.6061C61.8601 25.9489 65.7425 28.4573 68.761 31.8714L69.3439 32.5271L68.4904 32.7249C66.2318 33.2557 63.8169 33.6929 61.3189 34.0155L60.8713 34.078L60.7464 33.6408C60.3301 32.2148 59.8408 30.8409 59.2788 29.571C58.5814 27.9785 57.8007 26.5837 56.9472 25.4076L56.0104 24.1273L57.5301 24.5957V24.6061ZM40.1581 47.0888L40.1789 46.5475C40.283 43.2584 40.6473 40.115 41.2718 37.2214L41.3655 36.7634L41.8339 36.805C47.3088 37.2838 53.1585 37.263 58.6022 36.753L59.0706 36.7114L59.1747 37.1694C59.8096 40.0942 60.1739 43.248 60.2676 46.5475V47.0888H40.1685H40.1581ZM60.2676 49.5036V50.0449C60.1531 53.3444 59.7888 56.4982 59.1539 59.423L59.0498 59.881L58.5814 59.8393C53.1377 59.3293 47.288 59.3189 41.8131 59.7873L41.3447 59.8289L41.251 59.3709C40.6265 56.4773 40.2622 53.3444 40.1581 50.0449L40.1373 49.5036H60.2468H60.2676ZM50.2129 23.7006C53.2418 23.7006 56.3227 27.5413 58.2483 33.7345L58.4461 34.359L57.7903 34.4111C55.2298 34.6296 52.586 34.7441 49.9318 34.7441C47.465 34.7441 45.0085 34.6504 42.6145 34.4527L41.9588 34.4006L42.1565 33.7657C44.0821 27.5518 47.1736 23.6902 50.2129 23.6902V23.7006ZM31.5606 31.9858C34.5999 28.5198 38.5135 25.9697 42.8956 24.6166L44.4257 24.1482L43.4785 25.4388C42.6249 26.6046 41.8339 28.0097 41.1469 29.5919C40.5953 30.8409 40.0957 32.2356 39.6585 33.7345L39.5336 34.1613L39.086 34.1092C36.5672 33.797 34.1315 33.3806 31.8416 32.8498L30.9777 32.652L31.5606 31.9858ZM25.4819 46.5267C25.7734 42.4674 27.0745 38.5121 29.2499 35.0668L29.4581 34.7441L29.8328 34.8378C32.4974 35.5143 35.3701 36.0556 38.3886 36.4408L38.9507 36.5136L38.8362 37.0757C38.2117 40.0942 37.8578 43.2896 37.7641 46.5788V47.0888H25.4507L25.4924 46.5267H25.4819ZM29.4581 61.8482L29.2499 61.5255C27.0745 58.0907 25.7734 54.125 25.4819 50.0656L25.4403 49.5036H37.7433V50.0136C37.8474 53.3027 38.2117 56.5086 38.8258 59.5167L38.9403 60.0787L38.3782 60.1516C35.3701 60.5367 32.4869 61.078 29.8223 61.7546L29.4476 61.8482H29.4581ZM42.8956 71.9862C38.5135 70.6331 34.5999 68.083 31.5606 64.6169L30.9777 63.9508L31.8416 63.753C34.1315 63.2326 36.5672 62.8058 39.086 62.4935L39.5336 62.4415L39.6585 62.8683C40.0957 64.3671 40.5953 65.7619 41.1469 67.0109C41.8443 68.6034 42.6249 69.9982 43.4785 71.1744L44.4257 72.465L42.8956 71.9966V71.9862ZM50.2129 72.8918C47.1736 72.8918 44.0821 69.0302 42.1565 62.8162L41.9588 62.1813L42.6145 62.1293C47.5794 61.7337 52.867 61.7441 57.7903 62.1709L58.4461 62.2229L58.2483 62.8475C56.3123 69.0302 53.2314 72.8814 50.2129 72.8814V72.8918ZM68.761 64.721C65.7425 68.135 61.8497 70.6435 57.5301 71.9862L56.0104 72.4546L56.9472 71.1744C57.8007 70.0086 58.5814 68.6034 59.2788 67.0109C59.8304 65.7307 60.3301 64.3671 60.7464 62.9411L60.8713 62.504L61.3189 62.5664C63.8169 62.8891 66.2318 63.3262 68.4904 63.8571L69.3439 64.0653L68.761 64.721ZM74.9334 50.0656C74.6419 54.1666 73.32 58.174 71.0926 61.6504L70.8844 61.9731L70.5097 61.8795C67.8763 61.1821 65.0139 60.6304 62.0162 60.2245L61.4542 60.1516L61.5687 59.6C62.1932 56.5815 62.5575 53.3652 62.6511 50.024V49.514H74.9646L74.923 50.076L74.9334 50.0656ZM62.672 47.0888V46.5788C62.5679 43.2376 62.2036 40.0109 61.5791 37.0028L61.4646 36.4512L62.0267 36.3783C65.0243 35.9724 67.8763 35.4207 70.5201 34.7233L70.8948 34.6297L71.103 34.9523C73.3304 38.4288 74.6627 42.4257 74.9437 46.5371L74.9854 47.0992H62.6824L62.672 47.0888Z" fill="#478BF9"/>
</svg>
