<svg width="100" height="100" viewBox="0 0 100 100" fill="none" xmlns="http://www.w3.org/2000/svg">
<path d="M99.111 49.5555C99.111 76.8782 76.8782 99.1111 49.5555 99.1111C22.2328 99.1111 0 76.8782 0 49.5555C0 22.2328 22.2328 0 49.5555 0C76.8782 0 99.111 22.2328 99.111 49.5555ZM3.57015 49.5555C3.57015 74.9109 24.2001 95.5409 49.5555 95.5409C74.9109 95.5409 95.5408 74.9109 95.5408 49.5555C95.5408 24.2001 74.9109 3.57015 49.5555 3.57015C24.2001 3.57015 3.57015 24.2001 3.57015 49.5555Z" fill="#478BF9"/>
<path d="M40.7891 41.5694C40.7891 43.391 42.0277 44.9731 43.7972 45.4102L47.1591 46.2533V37.6038H44.7652C42.5794 37.6038 40.7995 39.3836 40.7995 41.5694H40.7891Z" fill="#478BF9"/>
<path d="M53.5064 63.0424H55.9005C58.0863 63.0424 59.8662 61.2625 59.8662 59.0767C59.8662 57.2552 58.6275 55.6731 56.8581 55.2359L53.4961 54.3928V63.0424H53.5064Z" fill="#478BF9"/>
<path d="M50.3335 10C28.1006 10 10 28.0902 10 50.3335C10 72.5767 28.0902 90.6669 50.3335 90.6669C72.5767 90.6669 90.6669 72.5767 90.6669 50.3335C90.6669 28.0902 72.5767 10 50.3335 10ZM66.2379 43.9634H59.8782V40.7783C59.8782 39.0297 58.4522 37.5933 56.6931 37.5933H53.5081V47.8354L58.4106 49.0636C63.0112 50.219 66.2275 54.3304 66.2275 59.0767C66.2275 64.7703 61.5956 69.4021 55.9021 69.4021H53.5081V77.4584H47.1484V69.4021H43.9634C38.6966 69.4021 34.4187 65.1242 34.4187 59.8574V56.6723H40.7783V59.8574C40.7783 61.606 42.2043 63.0424 43.9634 63.0424H47.1484V52.8003L42.2459 51.5721C37.6453 50.4167 34.4291 46.3053 34.4291 41.559C34.4291 35.8655 39.0609 31.2336 44.7544 31.2336H47.1484V23.1774H53.5081V31.2336H56.6931C61.9599 31.2336 66.2379 35.5116 66.2379 40.7783V43.9634Z" fill="#478BF9"/>
</svg>
